<?xml version="1.0" encoding="utf-8"?><svg viewBox="0 0 343 257" xmlns="http://www.w3.org/2000/svg" xmlns:xlink="http://www.w3.org/1999/xlink"><style>:root>svg{display:none}:root>svg:target{display:block}</style><svg fill="none" viewBox="0 0 343 257" id="big-purple-circle" xmlns="http://www.w3.org/2000/svg"><path opacity=".3" d="M343 114.513C343 185.046 200.778 257 130.466 257 60.155 257 0 113.956 0 43.424 0-27.11 112.236 9.494 182.548 9.494 252.859 9.495 343 43.98 343 114.514z" fill="#8C30F5"/></svg><svg fill="none" viewBox="0 0 68 68" id="features-asist" xmlns="http://www.w3.org/2000/svg"><path d="M9.1 53.556c0-1.654-1.368-3-3.05-3-1.682 0-3.05 1.346-3.05 3s1.368 3 3.05 3c1.682 0 3.05-1.346 3.05-3zm-4.067 0c0-.552.456-1 1.017-1 .561 0 1.017.448 1.017 1s-.456 1-1.017 1a1.009 1.009 0 01-1.017-1zM3 39.001c0 1.654 1.368 3 3.05 3 1.682 0 3.05-1.346 3.05-3s-1.368-3-3.05-3C4.368 36 3 37.347 3 39zm3.05-1c.561 0 1.017.448 1.017 1s-.456 1-1.017 1a1.009 1.009 0 01-1.017-1c0-.552.456-1 1.017-1zm25.417 9c0 .552.455 1 1.016 1h2.034c1.681 0 3.05 1.346 3.05 3s-1.369 3-3.05 3v2h-2.034v-2c-1.681 0-3.05-1.346-3.05-3h2.034c0 .552.455 1 1.016 1h2.034c.56 0 1.016-.448 1.016-1s-.455-1-1.016-1h-2.034c-1.681 0-3.05-1.346-3.05-3s1.369-3 3.05-3v-2h2.034v2c1.681 0 3.05 1.346 3.05 3h-2.034c0-.552-.455-1-1.016-1h-2.034c-.56 0-1.016.448-1.016 1zM64 53.556c0 1.654-1.368 3-3.05 3-1.682 0-3.05-1.346-3.05-3s1.368-3 3.05-3c1.682 0 3.05 1.346 3.05 3zm-2.033 0c0-.552-.456-1-1.017-1-.561 0-1.017.448-1.017 1s.456 1 1.017 1c.561 0 1.017-.448 1.017-1zM60.95 36.001c1.682 0 3.05 1.346 3.05 3s-1.368 3-3.05 3c-1.682 0-3.05-1.346-3.05-3s1.368-3 3.05-3zm0 2c-.561 0-1.017.448-1.017 1s.456 1 1.017 1c.561 0 1.017-.448 1.017-1s-.456-1-1.017-1zm-5.083 16.555v-2h-2.034v-5h-4.066v2H51.8v5h4.067zm0-14.555v-2H51.8v5h-2.033v2h4.066v-5h2.034zM11.133 52.556v2H15.2v-5h2.033v-2h-4.066v5h-2.034zm6.1-9.555H15.2v-5h-4.067v2h2.034v5h4.066v-2zm12.2-20v-.466l-.333-.219A5.975 5.975 0 0126.426 18h-1.06c-1.68 0-3.05-1.346-3.05-3 0-.737.283-1.405.734-1.928-.476-.954-.733-1.999-.733-3.072 0-3.859 3.193-7 7.116-7h8.134c3.923 0 7.116 3.141 7.116 7a6.892 6.892 0 01-.732 3.073c.45.523.732 1.19.732 1.927 0 1.654-1.368 3-3.05 3h-1.059a5.973 5.973 0 01-2.674 4.316l-.333.22V23h15.25c.453 0 .868.152 1.206.4l.406-.4c1.31-1.289 3.598-1.289 4.909 0h.595c1.682 0 3.05 1.346 3.05 3v2c0 1.654-1.368 3-3.05 3H42.65v4h1.8l2.66 9.154c.414 1.42.623 2.895.623 4.378 0 4.988-2.422 9.755-6.48 12.749L38.38 63.4A8.289 8.289 0 0133.5 65a8.277 8.277 0 01-4.875-1.596l-2.877-2.123c-4.059-2.994-6.481-7.76-6.481-12.75 0-1.482.21-2.956.624-4.38L22.549 35h1.801V31H7.067c-1.682 0-3.05-1.346-3.05-3v-2c0-1.654 1.368-3 3.05-3h.595c1.31-1.289 3.598-1.289 4.909 0l.406.4a2.04 2.04 0 011.206-.4h15.25zM12.15 29v-3.587l-1.017-1c-.544-.533-1.49-.533-2.033 0L8.504 25H7.067c-.562 0-1.017.448-1.017 1v2c0 .552.455 1 1.017 1h5.083zm30.768 7.998h-2.706a9.13 9.13 0 01-5.02-1.495l-1.692-1.11-1.693 1.11a9.124 9.124 0 01-5.023 1.495h-2.701l-2.236 7.703a13.675 13.675 0 00-.547 3.83c0 4.362 2.119 8.53 5.668 11.149l2.875 2.122c2.099 1.543 5.213 1.545 7.318-.004l2.871-2.118c3.55-2.618 5.668-6.786 5.668-11.15 0-1.296-.184-2.584-.545-3.827l-2.237-7.705zm12.949-12.585l-1.017 1V29h5.083c.562 0 1.017-.448 1.017-1v-2c0-.552-.456-1-1.017-1h-1.437l-.596-.586c-.544-.533-1.49-.533-2.033 0zm-3.05.586h-15.25L33.5 28.414 29.93 25H14.183v4h12.2v6h.4c1.394 0 2.74-.401 3.896-1.16l2.821-1.852 2.82 1.852A7.068 7.068 0 0040.211 35h.406v-6h12.2v-4zM42.65 15c0-.552-.456-1-1.017-1h-1.016v2h1.016c.561 0 1.017-.448 1.017-1zm-17.283 1h1.016v-2h-1.016c-.562 0-1.017.448-1.017 1s.455 1 1.017 1zm3.648-6.584a3.88 3.88 0 012.94.206l1.653.813c.751.37 1.593.565 2.434.565a7.63 7.63 0 012.483.42l.946.178 1.146.402h1.016c.194 0 .38.022.564.056A4.903 4.903 0 0042.65 10c0-2.757-2.28-5-5.083-5h-8.134c-2.803 0-5.083 2.243-5.083 5 0 .714.157 1.412.452 2.056.184-.034.372-.056.565-.056h1.165a3.801 3.801 0 012.483-2.584zm1.212 11.236l.334.22c.567.371.906.993.906 1.663v1.051l2.033 2 2.033-2v-1.05c0-.67.339-1.293.906-1.665l.334-.219a3.977 3.977 0 001.81-3.328v-3.706l-.106-.053A5.546 5.546 0 0036.042 13a7.628 7.628 0 01-3.344-.776l-1.653-.813a1.83 1.83 0 00-1.385-.098 1.788 1.788 0 00-1.243 1.695v4.316c0 1.34.677 2.584 1.81 3.328z" fill="#685ED6"/></svg><svg fill="none" viewBox="0 0 68 68" id="features-custom" xmlns="http://www.w3.org/2000/svg"><path d="M15.758 28.65l-.108-.217 1.853-.927.108.218a2.302 2.302 0 002.072 1.28c.884 0 1.677-.49 2.072-1.28l.109-.218 1.853.927-.109.218a4.364 4.364 0 01-3.925 2.425 4.362 4.362 0 01-3.925-2.425zM.002 52.83v-.906c0-3.04.835-5.985 2.401-8.572L.413 39.87a3.083 3.083 0 01-.301-2.36c.219-.8.736-1.469 1.457-1.88.466-.267.998-.41 1.54-.41 1.115 0 2.15.602 2.7 1.57l1 1.75a16.577 16.577 0 013.495-1.95 9.705 9.705 0 01-4.88-5.573 5.189 5.189 0 01-4.386-5.119v-.678c0-.3.026-.6.078-.89l1.773-10.203A17.015 17.015 0 0119.683 0c8.308 0 15.37 5.94 16.794 14.125l1.775 10.205c.05.288.076.587.076.888v.678a5.187 5.187 0 01-4.385 5.118 9.7 9.7 0 01-4.882 5.573c6.11 2.515 10.303 8.563 10.303 15.336v.905c0 3.998-3.253 7.251-7.25 7.251h-3.108v4.143H10.36V60.08H7.253c-3.998 0-7.25-3.252-7.25-7.25zm11.394 5.178h5.18v-3.714l-1.036-1.036c-.554-.553-1.518-.554-2.072 0l-.607.607h-1.465c-.571 0-1.035.465-1.035 1.036v2.071c0 .571.464 1.036 1.035 1.036zM7.917 44.653L6.19 45.805l3.423 5.988h.749V48.93l-2.444-4.276zm6.587-1.146h-2.072v7.94c1.364-.967 3.367-.858 4.572.345l.414.415a2.056 2.056 0 011.23-.414h8.286v-8.286h-2.072c0 1.142-.929 2.071-2.071 2.071h-6.215a2.074 2.074 0 01-2.072-2.072zm8.287-21.753a3.111 3.111 0 003.107 3.107 3.111 3.111 0 003.108-3.107 3.111 3.111 0 00-3.108-3.108 3.111 3.111 0 00-3.107 3.108zm-.283-3.884a11.368 11.368 0 01-4.655-3.324l-1.216-1.458a1.816 1.816 0 00-1.4-.657c-.697 0-1.322.387-1.633 1.01l-.436.873-1.56.52a1.823 1.823 0 00-1.247 1.731v1.072a5.126 5.126 0 013.107-1.062c2.5 0 4.593 1.782 5.075 4.143h2.28c.23-1.132.846-2.114 1.685-2.848zm-9.04.776a3.111 3.111 0 00-3.107 3.108 3.111 3.111 0 003.107 3.107 3.111 3.111 0 003.108-3.107 3.111 3.111 0 00-3.108-3.108zm-3.107 7.372c0 2.58 1.643 4.86 4.09 5.675a3.104 3.104 0 012.125 2.948v1.488l.25 1.003a2.94 2.94 0 002.857 2.231 2.941 2.941 0 002.857-2.23l.25-1.003v-1.488c0-1.34.854-2.525 2.125-2.948a5.973 5.973 0 004.09-5.675v-.148a5.125 5.125 0 01-3.107 1.063 5.189 5.189 0 01-5.074-4.143h-2.281a5.188 5.188 0 01-5.075 4.143c-1.17 0-2.24-.405-3.107-1.063v.147zm6.215 15.417v2.072h6.216l-.001-2.072h-6.215zM26.934 60.08H12.432v2.072h14.502V60.08zm-1.106-22.336l-1.24-.266-.04.157a4.987 4.987 0 01-.948 1.893 2.074 2.074 0 011.262 1.907h4.144v10.358h3.748l1.321 2.645-1.853.927-.749-1.5H18.647v4.143h13.466a5.185 5.185 0 005.18-5.179v-.905c0-6.792-4.822-12.756-11.465-14.18zm-14.242-2.83l1.756.753 1.161-.248v-.777c0-.447-.284-.842-.709-.983a8.042 8.042 0 01-5.506-7.64v-9.455c0-1.679 1.07-3.164 2.663-3.696l.745-.247.054-.107a3.877 3.877 0 013.485-2.154c1.16 0 2.251.51 2.994 1.402l1.216 1.459a9.287 9.287 0 004.375 2.92 4.694 4.694 0 01-.49-1.426c-.227-1.359-1.318-2.284-2.61-2.284V10.36a4.689 4.689 0 014.639 3.93c.226 1.36 1.318 2.285 2.611 2.285h3.107v9.443a8.042 8.042 0 01-5.506 7.64c-.424.14-.709.536-.709.983v.777l1.162.248 1.754-.753a7.615 7.615 0 004.366-5.125l.195-.783h.81a3.111 3.111 0 003.107-3.108v-.678c0-.177-.016-.355-.046-.53L34.435 14.48A14.944 14.944 0 0019.683 2.073 14.948 14.948 0 004.93 14.48L3.155 24.686a3.091 3.091 0 00-.046.533v.678a3.111 3.111 0 003.107 3.108h.81l.194.784a7.618 7.618 0 004.366 5.125zm-3.73 5.456l2.505 4.383v-3.318h4.143c0-.856.521-1.591 1.263-1.907a4.987 4.987 0 01-.95-1.893l-.039-.157-1.24.266c-2.066.443-4.003 1.36-5.682 2.626zM2.21 38.84l2.95 5.163 1.727-1.152-2.877-5.036c-.274-.48-.939-.66-1.412-.388a1.033 1.033 0 00-.388 1.413zm-.136 13.99a5.185 5.185 0 005.18 5.178H8.48a3.072 3.072 0 01-.191-1.036v-2.071c0-.365.075-.71.19-1.036H6.858l-.75 1.499-1.853-.927 1.323-2.644h1.65l-3.622-6.337a14.44 14.44 0 00-1.531 6.468v.905zm58.531-29.432l-4.852 3.905a3.024 3.024 0 01-1.887.666 3.016 3.016 0 01-1.887-.666l-4.852-3.906a9.672 9.672 0 01-3.62-7.574c0-.862.114-1.72.34-2.552l2.295-8.465.757-.03a17.268 17.268 0 006.534-1.573l.433-.199.433.199a17.278 17.278 0 006.534 1.572l.757.031 2.295 8.464c.226.833.34 1.69.34 2.552a9.676 9.676 0 01-3.62 7.576zm1.548-7.575c0-.679-.09-1.355-.267-2.01L59.983 6.8a19.267 19.267 0 01-5.082-1.122V17.61H52.83V5.677a19.319 19.319 0 01-5.082 1.122l-1.901 7.015a7.698 7.698 0 00-.268 2.009 7.613 7.613 0 002.847 5.96l4.404 3.545v-5.646h2.072v5.646l4.404-3.544a7.614 7.614 0 002.847-5.961zm-2.804 13.484l-9.626 9.627-1.34-1.339-1.464 1.465 2.804 2.804 11.09-11.092-1.464-1.465zm0 7.251l-9.626 9.627-1.34-1.34-1.464 1.466 2.804 2.804 11.09-11.092-1.464-1.465zM48.383 52.097l-1.464 1.465 2.804 2.803 11.09-11.091-1.464-1.465-9.626 9.627-1.34-1.34z" fill="#685ED6"/></svg><svg fill="none" viewBox="0 0 68 68" id="features-setup" xmlns="http://www.w3.org/2000/svg"><path d="M27.625 15.22H21.02L34 .52l12.98 14.698h-6.605v24.095H38.25V13.093h4.02L34 3.73l-8.27 9.364h4.02v26.218h-2.125V15.22zM15.938 41.437h36.125v25.5H15.938v-25.5zm34 2.124H38.25v21.25h11.688v-21.25zm-25.5 1.603c0 .288.234.523.522.523h4.267a.524.524 0 00.523-.523v-1.602h-5.312v1.602zm-6.375 19.648h18.062v-21.25h-4.25v1.602a2.65 2.65 0 01-2.648 2.648H24.96a2.65 2.65 0 01-2.647-2.648v-1.602h-4.25v21.25zm-8.5 2.124h2.125V31.876H9.61l5.265-6.77 5.265 6.77h-2.077v7.438h2.125V34h4.297l-9.61-12.356L5.265 34h4.298v32.938zm38.25-38.25v10.625h2.125v-12.75H47.86l5.265-6.769 5.265 6.77h-2.077v40.374h2.125v-38.25h4.297l-9.61-12.355-9.61 12.355h4.298z" fill="#685ED6"/></svg><svg fill="none" viewBox="0 0 68 68" id="features-telegram" xmlns="http://www.w3.org/2000/svg"><g clip-path="url(#eclip0)" fill="#685ED6"><path d="M65.364 2.571a2.312 2.312 0 00-2.373-.563L18.117 16.861c-1.223.404-.597 2.295.626 1.89L63.617 3.9c.312-.032.452.107.42.42L45 61.83a.526.526 0 01-.973.059L36.34 45.536l3.647-5.886c.678-1.094-1.015-2.144-1.694-1.049l-3.609 5.826-9.004-.762 24.908-24.909-9.532 15.385c-.678 1.095 1.016 2.144 1.694 1.05l14.058-22.693c.542-.873-.5-1.912-1.373-1.37L22.451 31.647 6.039 23.91a.526.526 0 01.059-.973l7.657-2.535c1.223-.404.597-2.295-.625-1.89l-7.658 2.534c-2.114.7-2.297 3.717-.282 4.666l16.38 7.722.896 11.122c.039.482.43.87.91.913l11.176.946 7.672 16.322c.943 2.006 3.968 1.833 4.667-.28L65.927 4.945a2.312 2.312 0 00-.563-2.374zM24.28 42.248l-.636-7.892-.085-1.052L49.13 17.397 24.28 42.247zM19.506 47.888a.996.996 0 00-1.408.023L.284 66.308c-.894.923.532 2.314 1.43 1.386L19.53 49.297a.996.996 0 00-.023-1.409z"/><path d="M25.902 47.915l-14.08 14.663c-.89.926.541 2.312 1.437 1.38l14.08-14.663c.892-.929-.545-2.309-1.437-1.38zM4.32 56.383a.994.994 0 00.718-.306l14.08-14.663c.892-.929-.545-2.309-1.437-1.38L3.6 54.697c-.574.597-.106 1.686.718 1.686z"/></g><defs><clipPath id="eclip0"><path fill="#fff" d="M0 0h68v68H0z"/></clipPath></defs></svg><svg fill="none" viewBox="0 0 235 218" id="purple-circle" xmlns="http://www.w3.org/2000/svg"><path d="M203.043 149.295c-19.486 33.75-107.232 28.997-140.785 9.625-33.552-19.371-22.74-104.391-3.254-138.142 19.485-33.75 62.932 14.688 96.484 34.059 33.553 19.371 67.041 60.708 47.555 94.458z" fill="#8C30F5" fill-opacity=".4"/></svg><svg fill="none" viewBox="0 0 133 133" id="turquoise-circle" xmlns="http://www.w3.org/2000/svg"><circle opacity=".6" cx="66.5" cy="66.5" r="66.5" fill="#18E1F7"/></svg></svg>